<?xml version="1.0" encoding="iso-8859-1"?>
<!-- Uploaded to: SVG Repo, www.svgrepo.com, Generator: SVG Repo Mixer Tools -->
<svg fill="#000000" height="800px" width="800px" version="1.1" id="Layer_1" xmlns="http://www.w3.org/2000/svg" xmlns:xlink="http://www.w3.org/1999/xlink" 
	 viewBox="0 0 512.009 512.009" xml:space="preserve">
<g>
	<g>
		<g>
			<path d="M480.896,389.792c-41.331-21.743-80.525-37.184-115.208-44.616c16.162-20.617,28.406-45.064,34.767-70.954
				c15.37-6.276,26.231-21.378,26.231-38.979v-65.152c0-16.072-9.055-30.061-22.329-37.15C395.588,59.585,329.114,0,256.013,0
				c-22.312,0-44.672,5.781-65.267,16.415C172.206,5.968,150.807,0,128.013,0c-70.683,0-128,57.317-128,128
				c0,63.845,46.764,116.778,107.902,126.424c4.099,33.126,18.19,64.94,38.422,90.75c-34.675,7.432-73.871,22.875-115.198,44.615
				c-19.132,10.071-31.134,29.948-31.134,51.563v49.323c0,11.782,9.551,21.333,21.333,21.333h469.333
				c11.782,0,21.333-9.551,21.333-21.333v-49.323C512.004,419.735,500.021,399.86,480.896,389.792z M256.013,42.667
				c55.209,0,106.667,49.873,106.667,106.667v85.333c0,8.79-1.023,17.564-2.91,26.166c-29.315,9.323-68.973,16.501-103.75,16.501
				c-11.782,0-21.333,9.551-21.333,21.333c0,11.782,9.551,21.333,21.333,21.333c26.867,0,55.815-3.673,82.086-9.366
				c-8.967,13.225-19.864,24.742-31.797,33.555c-0.592,0.34-1.174,0.699-1.734,1.097c-11.868,8.433-24.344,13.916-36.643,16.126
				c-4.146,0.729-7.307,1.105-10.092,1.22c-0.609,0.017-1.218,0.035-1.827,0.035c-0.577,0-1.155-0.014-1.732-0.03
				c-2.793-0.108-5.909-0.469-9.585-1.102c-12.897-2.334-25.373-7.816-37.241-16.249c-0.557-0.396-1.137-0.753-1.725-1.092
				c-27.108-20.015-48.887-53.979-54.796-90.24c0.948-0.172,1.893-0.354,2.834-0.546c0.159-0.032,0.316-0.069,0.475-0.102
				c0.827-0.172,1.652-0.35,2.474-0.539c0.348-0.08,0.693-0.166,1.039-0.248c0.631-0.15,1.262-0.302,1.89-0.461
				c0.387-0.099,0.772-0.202,1.158-0.304c0.586-0.155,1.171-0.312,1.754-0.475c0.398-0.111,0.794-0.226,1.19-0.341
				c0.567-0.165,1.133-0.333,1.697-0.505c0.399-0.122,0.798-0.245,1.195-0.371c0.563-0.178,1.124-0.361,1.684-0.547
				c0.387-0.128,0.774-0.256,1.159-0.388c0.58-0.199,1.158-0.404,1.734-0.611c0.358-0.128,0.718-0.255,1.074-0.386
				c0.644-0.238,1.284-0.484,1.923-0.731c0.283-0.11,0.568-0.215,0.85-0.326c0.917-0.363,1.829-0.735,2.735-1.118
				c0.139-0.059,0.275-0.121,0.414-0.18c0.769-0.328,1.536-0.662,2.297-1.005c0.31-0.139,0.616-0.285,0.924-0.427
				c0.586-0.269,1.17-0.54,1.751-0.818c0.351-0.168,0.699-0.341,1.049-0.512c0.535-0.262,1.07-0.526,1.601-0.796
				c0.362-0.183,0.721-0.37,1.081-0.557c0.515-0.268,1.029-0.538,1.54-0.813c0.36-0.193,0.719-0.388,1.077-0.584
				c0.512-0.281,1.021-0.567,1.528-0.854c0.347-0.197,0.694-0.393,1.04-0.594c0.524-0.304,1.043-0.613,1.562-0.924
				c0.321-0.192,0.644-0.383,0.963-0.578c0.579-0.354,1.153-0.715,1.726-1.078c0.251-0.159,0.505-0.315,0.756-0.475
				c0.82-0.527,1.635-1.063,2.443-1.608c0.103-0.07,0.204-0.142,0.307-0.212c0.703-0.478,1.402-0.961,2.095-1.452
				c0.274-0.194,0.544-0.393,0.816-0.59c0.518-0.373,1.035-0.748,1.547-1.128c0.31-0.23,0.616-0.465,0.924-0.698
				c0.47-0.356,0.939-0.714,1.404-1.076c0.318-0.248,0.633-0.498,0.948-0.749c0.451-0.358,0.899-0.719,1.345-1.083
				c0.315-0.257,0.629-0.516,0.941-0.776c0.444-0.37,0.885-0.744,1.324-1.12c0.302-0.259,0.605-0.517,0.904-0.779
				c0.453-0.395,0.901-0.795,1.349-1.197c0.277-0.249,0.556-0.496,0.832-0.747c0.494-0.451,0.981-0.908,1.467-1.366
				c0.221-0.208,0.445-0.414,0.665-0.624c0.702-0.671,1.397-1.348,2.083-2.034c0.073-0.073,0.143-0.147,0.216-0.22
				c0.612-0.615,1.219-1.235,1.818-1.862c0.231-0.242,0.457-0.487,0.686-0.731c0.438-0.465,0.875-0.931,1.306-1.403
				c0.258-0.283,0.513-0.569,0.769-0.854c0.394-0.44,0.788-0.88,1.176-1.325c0.265-0.303,0.527-0.609,0.789-0.915
				c0.374-0.436,0.745-0.875,1.113-1.317c0.261-0.313,0.52-0.626,0.778-0.942c0.366-0.447,0.727-0.897,1.087-1.349
				c0.249-0.313,0.497-0.625,0.743-0.94c0.368-0.472,0.731-0.948,1.093-1.425c0.228-0.3,0.457-0.599,0.682-0.901
				c0.397-0.534,0.788-1.073,1.177-1.613c0.18-0.25,0.363-0.497,0.541-0.748c0.564-0.794,1.119-1.594,1.665-2.402
				c0.044-0.065,0.086-0.131,0.129-0.196c0.501-0.744,0.994-1.492,1.479-2.247c0.177-0.276,0.349-0.555,0.524-0.832
				c0.347-0.548,0.692-1.097,1.031-1.651c0.2-0.328,0.396-0.658,0.593-0.987c0.306-0.511,0.61-1.023,0.909-1.538
				c0.202-0.348,0.401-0.699,0.6-1.049c0.287-0.505,0.571-1.013,0.851-1.522c0.196-0.357,0.391-0.715,0.584-1.075
				c0.276-0.514,0.548-1.031,0.818-1.549c0.185-0.356,0.37-0.712,0.552-1.07c0.273-0.539,0.541-1.081,0.807-1.624
				c0.167-0.341,0.336-0.681,0.5-1.023c0.29-0.605,0.571-1.214,0.852-1.824c0.131-0.284,0.265-0.566,0.394-0.852
				c0.404-0.897,0.8-1.798,1.184-2.705c0.027-0.063,0.051-0.127,0.078-0.19c0.356-0.845,0.704-1.695,1.042-2.55
				c0.122-0.308,0.238-0.62,0.358-0.929c0.237-0.613,0.474-1.227,0.702-1.845c0.134-0.364,0.264-0.731,0.395-1.096
				c0.204-0.569,0.407-1.139,0.603-1.712c0.133-0.387,0.262-0.777,0.391-1.166c0.185-0.559,0.368-1.119,0.546-1.681
				c0.126-0.397,0.249-0.795,0.371-1.193c0.173-0.566,0.341-1.133,0.506-1.702c0.114-0.394,0.229-0.787,0.34-1.182
				c0.165-0.59,0.324-1.182,0.481-1.776c0.1-0.377,0.202-0.753,0.298-1.132c0.167-0.654,0.324-1.311,0.481-1.969
				c0.076-0.32,0.156-0.638,0.23-0.958c0.225-0.979,0.44-1.962,0.642-2.95c0.005-0.024,0.009-0.048,0.014-0.073
				c0.197-0.964,0.381-1.931,0.556-2.903c0.059-0.328,0.112-0.659,0.168-0.989c0.115-0.67,0.229-1.34,0.334-2.013
				c0.061-0.391,0.116-0.785,0.173-1.177c0.09-0.618,0.178-1.236,0.26-1.857c0.054-0.414,0.104-0.829,0.155-1.244
				c0.073-0.605,0.143-1.212,0.208-1.819c0.045-0.424,0.088-0.849,0.129-1.274c0.059-0.608,0.112-1.217,0.162-1.827
				c0.035-0.422,0.069-0.843,0.1-1.266c0.046-0.632,0.084-1.265,0.12-1.9c0.023-0.402,0.049-0.803,0.068-1.205
				c0.034-0.697,0.057-1.396,0.08-2.095c0.011-0.341,0.026-0.682,0.035-1.024c0.025-1.042,0.04-2.086,0.04-3.133
				c0-1.02-0.015-2.037-0.039-3.052c-0.01-0.41-0.027-0.818-0.04-1.227c-0.019-0.582-0.039-1.164-0.066-1.745
				c-0.025-0.547-0.057-1.093-0.09-1.638c-0.024-0.407-0.049-0.814-0.077-1.221c-0.046-0.67-0.097-1.339-0.154-2.007
				c-0.018-0.213-0.037-0.425-0.057-0.637c-2.333-26.122-12.512-49.986-28.169-69.219l4.415-1.298
				C239.805,43.788,247.965,42.667,256.013,42.667z M42.679,128c0-47.119,38.214-85.333,85.333-85.333
				c17.525,0,33.814,5.294,47.368,14.359c0.66,0.612,1.367,1.192,2.123,1.735c18.075,12.974,30.336,32.076,34.38,53.564
				c0.066,0.356,0.13,0.713,0.191,1.071c0.158,0.904,0.3,1.812,0.429,2.724c0.11,0.791,0.214,1.585,0.303,2.383
				c0.049,0.433,0.096,0.866,0.138,1.3c0.11,1.153,0.201,2.312,0.265,3.478c0.015,0.275,0.025,0.55,0.038,0.825
				c0.058,1.292,0.099,2.588,0.099,3.894c0,47.119-38.214,85.333-85.333,85.333S42.679,175.119,42.679,128z M469.338,469.342H42.671
				v-27.989c0-5.773,3.226-11.114,8.337-13.805c45.473-23.922,87.51-39.302,120.968-43.539h16.405
				c19.864,12.844,41.933,20.62,64.541,21.273c1.029,0.036,2.057,0.061,3.082,0.061c1.026,0,2.053-0.025,3.081-0.061
				c22.614-0.649,44.689-8.426,64.559-21.273h16.389c33.474,4.237,75.511,19.615,120.994,43.542
				c5.095,2.682,8.311,8.016,8.311,13.802V469.342z"/>
			<path d="M136.1,144.192h32.363v16.171c0,4.48,3.627,8.107,8.107,8.107c4.459,0,8.085-3.627,8.085-8.107v-16.171h8.085
				c4.48,0,8.107-3.627,8.107-8.107c0-4.459-3.627-8.085-8.107-8.085h-8.085V87.531c0-3.392-2.133-6.443-5.333-7.595
				c-3.2-1.152-6.784-0.192-8.981,2.432l-40.448,48.555c-2.005,2.389-2.453,5.76-1.109,8.597
				C130.106,142.357,132.964,144.192,136.1,144.192z M168.463,109.888V128H153.38L168.463,109.888z"/>
			<path d="M119.921,152.267H87.068l27.968-24.128c8.171-8.171,10.624-20.459,6.251-31.275
				c-4.288-10.56-13.888-17.237-25.643-17.408c-17.856,0-32.363,14.507-32.363,32.363c0,4.459,3.605,8.085,8.085,8.085
				c4.48,0,8.085-3.627,8.085-8.085c0-8.917,7.253-16.192,16.469-16.192c6.912,0.128,9.664,5.611,10.347,7.296
				c1.557,3.819,1.664,9.451-2.24,13.376l-36.651,31.595c-3.755,3.243-5.056,8.32-3.328,12.949
				c1.728,4.629,6.037,7.616,10.965,7.616h44.907c4.48,0,8.085-3.627,8.085-8.085C128.006,155.893,124.401,152.267,119.921,152.267z
				"/>
		</g>
	</g>
</g>
</svg>